<?xml version="1.0" encoding="utf-8"?>
<!-- Generator: Adobe Illustrator 25.4.1, SVG Export Plug-In . SVG Version: 6.00 Build 0)  -->
<svg version="1.1" id="Layer_1" xmlns="http://www.w3.org/2000/svg" xmlns:xlink="http://www.w3.org/1999/xlink" x="0px" y="0px"
	 viewBox="0 0 1366 326" style="enable-background:new 0 0 1366 326;" xml:space="preserve">
<style type="text/css">
	.st0{fill:#E40521;}
	.st1{fill-rule:evenodd;clip-rule:evenodd;fill:#221F20;}
	.st2{fill-rule:evenodd;clip-rule:evenodd;fill:#E40521;}
</style>
<g>
	<g>
		<path class="st0" d="M385.4,278.5c-20.5,0-32.9-13-32.9-32s12.3-32.1,32.9-32.1s32.8,13,32.8,32.1
			C418.2,265.5,406,278.5,385.4,278.5L385.4,278.5z M385.4,266.4L385.4,266.4c11.5,0,13.4-10.3,13.4-20c0-9.6-1.9-20-13.4-20
			s-13.4,10.4-13.4,20C372,256.1,373.9,266.4,385.4,266.4L385.4,266.4z M436.4,216.2v-11.9l18.8-6.5v18.4h14.2v12.1h-14.2v28.1
			c0,8,1.3,10.1,7.8,10.1c2,0,4-0.2,6-0.3v10.6c-2.1,1-12.2,1.8-14.8,1.8c-14.7,0-17.8-7.3-17.8-20.5v-29.7h-12.7v-12.1h12.7V216.2z
			 M510.7,278.5c-20.5,0-32.8-13-32.8-32s12.3-32.1,32.8-32.1c20.6,0,32.8,13,32.8,32.1C543.5,265.5,531.3,278.5,510.7,278.5
			L510.7,278.5z M510.7,266.4L510.7,266.4c11.6,0,13.4-10.3,13.4-20c0-9.6-1.8-20-13.4-20c-11.5,0-13.4,10.4-13.4,20
			C497.3,256.1,499.2,266.4,510.7,266.4L510.7,266.4z M348.4,276.6L323.6,238c11-5.2,17-14.2,17-23.7c0-16.9-15.9-25-31.4-25.1
			h-38.7v87.4h19.6v-35.5h12.6l22.6,35.5H348.4L348.4,276.6z M290.1,203.7L290.1,203.7h16.3c8.5,0.1,13.5,3.4,13.5,11.1
			c0,7.7-5,11.8-13.5,12h-16.3V203.7L290.1,203.7z M45.2,276.5L282.5,48.4h113.1L633,276.5h-19.6l-225.6-217L163,276.5H45.2
			L45.2,276.5z"/>
	</g>
	<path class="st1" d="M653.8,190.5h87.4l-3.9,21.9H650L653.8,190.5L653.8,190.5z M648,223.3h87.4l-3.9,21.9h-58.3l-5.8,32.8h-29.1
		L648,223.3L648,223.3z M752.2,190.5h87.4l-3.9,21.9h-87.4L752.2,190.5L752.2,190.5z M769.8,256.1H828l-3.9,21.9h-58.3h-29.1
		l9.6-54.6h87.4l-3.9,21.9h-58.3L769.8,256.1L769.8,256.1z M919,190.5c14.1,0,23.5,11.4,21,25.5c-1.7,9.8-8.8,18.3-17.6,22.6
		c3.3,3.3,4.9,8.3,3.9,13.8l-4.5,25.5h-29.1l4.8-27.3c0.5-3-1.5-5.5-4.5-5.5h-52.1l3.9-21.9h59.4c3,0,5.9-2.5,6.4-5.5
		s-1.5-5.5-4.5-5.5h-59.4l3.9-21.9H919V190.5z M1036.2,217.8c0.5-3-1.5-5.5-4.5-5.5c-18.8,0-37.6,0-56.5,0l-11.6,65.6h-29.1
		l15.4-87.4h94.7c14.1,0,23.5,11.4,21,25.5l-10.9,61.9h-29.1L1036.2,217.8L1036.2,217.8z M989.7,223.3h29.1l-9.6,54.6h-29.1
		L989.7,223.3L989.7,223.3z M1096.4,223.3l-36.2,54.6h120.2l-27.2-87.4h-32l20.4,65.6h-34.2l21.8-32.8H1096.4L1096.4,223.3z
		 M1225.9,234.2l-6.2-10.9h41.5l-4.3-7.7l23-25.1h41.5l-40.1,43.7l24.6,43.7h-41.5l-14.2-25.1l-23,25.1h-41.5L1225.9,234.2
		L1225.9,234.2z"/>
	<g>
		<polygon class="st2" points="1201.3,189.1 1242.8,189.1 1255.1,210.9 1213.6,210.9 		"/>
	</g>
</g>
</svg>
